<svg id="svg" xmlns="http://www.w3.org/2000/svg" xmlns:xlink="http://www.w3.org/1999/xlink" width="400" height="251.94805194805195" viewBox="0, 0, 400,251.94805194805195"><g id="svgg"><path id="path0" d="M185.006 1.329 C 168.219 2.649,157.660 5.404,144.392 11.925 C 111.181 28.247,90.320 58.065,85.665 95.868 C 84.570 104.762,85.713 120.728,88.188 131.119 C 102.964 193.150,170.278 227.901,229.734 204.192 C 298.590 176.734,317.937 88.612,267.095 34.021 C 246.658 12.077,213.953 -0.947,185.006 1.329 M194.756 17.132 C 206.713 19.545,211.495 33.334,202.577 39.684 C 201.491 40.457,201.931 40.614,205.192 40.614 C 208.677 40.614,208.497 40.714,209.799 38.054 C 210.189 37.259,210.597 36.606,210.707 36.604 C 211.172 36.595,210.126 41.183,209.295 42.798 L 208.961 43.447 202.119 43.447 C 194.843 43.447,194.662 43.417,196.395 42.503 C 207.023 36.895,202.758 21.724,190.555 21.724 C 178.569 21.724,174.219 36.466,184.493 42.265 C 186.556 43.429,186.404 43.460,178.927 43.392 L 172.022 43.329 171.471 41.795 C 170.834 40.022,170.170 36.829,170.395 36.622 C 170.480 36.545,170.588 36.590,170.636 36.723 C 170.684 36.856,171.174 37.759,171.725 38.730 L 172.727 40.496 175.443 40.564 C 176.936 40.602,178.424 40.566,178.749 40.483 L 179.339 40.333 178.388 39.470 C 167.352 29.455,178.749 13.903,194.756 17.132 M137.383 37.957 C 149.512 72.837,155.136 89.142,155.136 89.433 C 155.136 89.970,148.444 103.396,148.170 103.410 C 148.040 103.417,147.543 102.440,147.066 101.239 C 146.588 100.038,145.328 96.930,144.266 94.333 C 143.204 91.736,141.349 87.166,140.143 84.179 C 132.593 65.468,129.878 58.765,127.856 53.837 C 126.604 50.785,125.349 47.679,125.069 46.934 L 124.558 45.580 127.037 43.079 C 130.310 39.776,135.668 35.183,136.248 35.183 C 136.342 35.183,136.852 36.432,137.383 37.957 M246.871 36.503 C 251.421 40.127,256.434 45.037,256.434 45.866 C 256.434 46.064,256.021 47.221,255.516 48.438 C 255.011 49.654,253.458 53.465,252.065 56.907 C 250.672 60.348,248.972 64.545,248.287 66.234 C 247.603 67.922,245.926 72.066,244.561 75.443 C 243.197 78.819,240.511 85.460,238.593 90.201 C 236.675 94.941,234.712 99.824,234.231 101.052 C 233.749 102.281,233.238 103.324,233.096 103.372 C 232.954 103.419,231.274 100.328,229.362 96.503 L 225.887 89.547 234.569 64.549 C 239.345 50.800,243.588 38.569,243.999 37.367 C 244.879 34.795,244.769 34.828,246.871 36.503 M124.358 47.757 C 124.277 48.568,124.154 58.689,124.083 70.248 L 123.954 91.263 124.901 88.194 C 125.421 86.505,126.575 82.754,127.464 79.858 C 128.353 76.961,129.178 74.614,129.298 74.641 C 129.508 74.689,142.610 113.862,142.617 114.464 C 142.619 114.627,140.188 119.625,137.215 125.570 L 131.809 136.381 134.635 143.338 C 136.190 147.164,137.836 151.198,138.293 152.302 C 139.419 155.023,140.886 158.606,142.497 162.574 C 143.235 164.392,144.372 167.177,145.023 168.762 L 146.206 171.644 147.445 170.945 C 150.247 169.364,154.973 168.384,157.155 168.931 C 158.012 169.146,157.694 169.375,155.850 169.870 C 153.621 170.467,150.894 171.976,149.145 173.578 L 147.616 174.979 148.153 176.332 C 148.448 177.077,148.759 177.881,148.844 178.119 C 148.978 178.500,149.176 178.411,150.473 177.383 C 157.018 172.194,164.894 170.815,171.074 173.776 C 173.851 175.106,174.665 176.217,172.271 175.409 C 166.684 173.522,158.638 176.318,153.163 182.049 C 151.127 184.179,151.143 184.133,151.948 185.646 C 153.075 187.762,152.739 187.922,150.207 186.474 L 148.465 185.478 138.920 162.220 C 133.671 149.427,129.183 138.483,128.948 137.898 C 128.713 137.314,126.528 132.001,124.092 126.092 C 121.657 120.183,119.186 114.179,118.601 112.751 C 118.015 111.322,117.296 109.569,117.001 108.855 C 116.421 107.448,115.114 104.257,112.988 99.055 C 112.244 97.237,111.289 94.900,110.864 93.861 C 110.439 92.822,109.290 90.006,108.310 87.603 C 107.331 85.201,106.203 82.544,105.803 81.700 C 104.833 79.650,104.877 79.038,106.252 75.385 C 110.035 65.338,115.116 56.722,122.405 47.993 C 124.222 45.817,124.554 45.777,124.358 47.757 M259.294 48.701 C 266.867 57.795,272.931 68.545,275.921 78.176 L 276.329 79.492 275.244 81.954 C 274.647 83.308,271.114 91.854,267.393 100.945 C 257.499 125.120,258.792 121.970,252.179 138.017 C 249.289 145.030,246.580 151.617,246.159 152.656 C 245.738 153.695,245.023 155.449,244.568 156.553 C 241.485 164.046,233.863 182.694,233.340 184.025 L 232.704 185.642 230.764 186.612 C 229.698 187.145,228.763 187.520,228.688 187.444 C 228.612 187.369,230.845 181.701,233.651 174.849 C 236.456 167.998,238.697 162.251,238.631 162.079 C 238.410 161.504,235.897 160.946,233.472 160.933 C 230.775 160.919,230.655 160.767,232.645 159.878 C 234.618 158.996,236.107 158.648,238.352 158.543 C 239.380 158.495,240.296 158.373,240.386 158.272 C 240.804 157.804,243.178 151.467,242.963 151.394 C 242.041 151.083,239.251 151.998,235.183 153.948 C 229.491 156.677,227.765 157.134,223.140 157.139 C 218.068 157.145,215.215 156.173,219.629 155.943 C 224.280 155.701,228.625 154.065,231.759 151.376 C 237.435 146.506,240.853 144.614,244.792 144.162 L 246.255 143.994 247.313 141.478 C 247.895 140.094,248.589 138.383,248.856 137.676 L 249.340 136.390 243.894 125.495 L 238.447 114.600 245.108 94.471 C 248.771 83.400,251.850 74.430,251.949 74.538 C 252.049 74.646,252.288 75.266,252.480 75.915 C 252.673 76.564,253.636 79.699,254.620 82.881 C 255.604 86.063,256.601 89.303,256.835 90.083 L 257.261 91.499 257.334 86.777 C 257.375 84.179,257.295 76.263,257.156 69.185 C 256.858 53.951,256.837 46.281,257.093 46.281 C 257.195 46.281,258.186 47.370,259.294 48.701 M200.179 59.563 L 200.241 70.366 201.183 70.366 L 202.125 70.366 202.125 60.914 L 202.125 51.462 205.372 51.528 L 208.619 51.594 208.680 60.980 L 208.742 70.366 209.684 70.366 L 210.626 70.366 210.626 62.567 L 210.626 54.768 213.872 54.834 L 217.119 54.900 217.182 62.422 C 217.250 70.666,217.236 70.760,215.736 71.956 C 215.449 72.185,214.214 73.436,212.992 74.734 C 211.770 76.033,208.071 79.885,204.771 83.294 L 198.772 89.492 189.255 89.492 L 179.737 89.492 178.803 88.371 C 177.981 87.383,174.146 82.249,169.244 75.573 C 167.281 72.898,167.233 73.345,169.817 70.248 C 172.763 66.717,175.707 63.202,175.900 62.986 C 176.050 62.818,180.443 66.392,180.586 66.797 C 180.657 66.999,179.128 68.998,177.233 71.179 C 176.098 72.487,176.082 72.526,176.525 72.934 C 176.774 73.164,177.679 74.010,178.536 74.814 L 180.095 76.277 182.610 73.277 L 185.124 70.277 185.124 60.876 L 185.124 51.476 188.286 51.476 C 190.952 51.476,191.471 51.534,191.592 51.849 C 191.671 52.055,191.736 56.305,191.736 61.294 L 191.736 70.366 192.680 70.366 L 193.625 70.366 193.625 59.497 L 193.625 48.629 196.871 48.695 L 200.118 48.760 200.179 59.563 M277.417 83.117 C 280.344 93.697,281.137 109.111,279.325 120.216 C 278.693 124.088,277.424 129.870,277.205 129.870 C 276.833 129.870,276.094 81.553,276.455 80.902 C 276.629 80.591,276.875 81.158,277.417 83.117 M104.748 90.614 C 104.669 95.906,104.539 106.904,104.458 115.053 C 104.378 123.202,104.221 129.870,104.110 129.870 C 103.644 129.870,101.989 122.106,101.424 117.267 C 100.144 106.306,101.203 91.994,104.009 82.344 C 104.804 79.607,104.897 80.639,104.748 90.614 M179.370 90.260 C 179.293 90.682,178.962 93.577,178.634 96.694 C 178.306 99.811,177.724 105.071,177.341 108.383 C 176.958 111.694,176.371 116.848,176.038 119.835 C 175.705 122.822,175.314 126.304,175.168 127.573 C 175.022 128.842,174.980 129.958,175.074 130.053 C 175.169 130.147,181.413 130.224,188.949 130.224 L 202.653 130.224 202.498 128.217 C 202.290 125.529,200.911 110.933,199.768 99.311 C 199.257 94.128,198.895 89.798,198.962 89.689 C 199.029 89.581,203.954 89.492,209.906 89.492 L 220.729 89.492 221.853 92.031 C 223.364 95.439,224.590 98.191,226.981 103.542 C 233.483 118.087,237.026 126.044,238.022 128.335 C 238.642 129.764,239.639 132.047,240.236 133.409 C 241.563 136.436,241.563 136.352,240.236 136.413 C 238.050 136.513,234.978 138.632,229.868 143.562 C 222.626 150.550,214.932 153.102,209.139 150.437 L 208.146 149.981 209.483 149.961 C 216.871 149.851,225.835 143.392,227.291 137.131 L 227.442 136.482 183.747 136.482 C 154.149 136.482,140.003 136.404,139.902 136.240 C 139.768 136.024,147.452 118.519,156.793 97.757 C 158.633 93.666,160.195 90.133,160.262 89.906 C 160.377 89.521,161.045 89.492,169.948 89.492 L 179.509 89.492 179.370 90.260 M112.328 120.012 C 113.510 123.551,116.356 132.184,118.653 139.197 C 120.950 146.210,124.255 156.294,125.999 161.606 C 127.742 166.918,129.103 171.328,129.022 171.406 C 128.942 171.483,127.503 170.128,125.824 168.394 C 116.657 158.924,110.014 148.113,105.563 135.419 C 104.331 131.905,104.129 133.185,108.026 119.835 C 108.594 117.887,109.229 115.682,109.436 114.935 C 109.979 112.976,109.974 112.967,112.328 120.012 M272.506 117.606 C 273.115 119.741,274.232 123.613,274.987 126.210 C 276.744 132.256,276.747 132.486,275.099 136.954 C 270.725 148.816,264.035 159.463,255.395 168.312 C 251.819 171.975,251.765 171.958,253.214 167.618 C 253.793 165.883,255.717 160.000,257.489 154.545 C 259.261 149.091,261.073 143.566,261.515 142.267 C 262.369 139.756,270.454 115.016,270.721 114.096 C 271.030 113.026,271.413 113.779,272.506 117.606 M194.360 150.516 C 197.820 151.250,201.181 153.143,204.741 156.363 C 207.915 159.235,208.906 160.004,210.744 161.023 C 212.504 161.998,216.695 163.513,218.359 163.775 C 219.868 164.012,219.578 164.259,217.419 164.575 C 211.452 165.447,208.646 166.694,204.279 170.414 C 195.935 177.520,184.706 177.176,175.851 169.543 C 172.703 166.830,169.037 165.331,163.754 164.596 C 161.845 164.330,161.436 164.195,162.009 164.018 C 162.190 163.962,163.662 163.529,165.280 163.054 C 169.993 161.673,172.311 160.296,176.033 156.668 C 181.307 151.526,188.203 149.211,194.360 150.516 M187.313 153.686 C 180.697 155.645,178.294 163.543,182.811 168.485 C 189.022 175.281,200.582 171.358,200.589 162.452 C 200.594 155.988,194.077 151.685,187.313 153.686 M191.606 158.546 C 193.164 161.644,192.078 169.833,190.320 168.242 C 188.414 166.517,188.162 160.576,189.878 157.801 C 190.517 156.766,190.764 156.872,191.606 158.546 M182.527 178.729 C 182.527 180.449,178.060 182.980,173.327 183.942 C 169.448 184.730,167.407 185.595,166.209 186.959 L 165.436 187.839 196.354 187.957 C 231.488 188.092,228.459 187.846,222.726 190.098 C 202.871 197.895,179.469 197.977,159.032 190.320 C 153.248 188.153,152.972 187.957,155.698 187.957 L 157.442 187.957 158.568 186.424 C 161.472 182.468,164.165 181.377,171.665 181.120 C 177.154 180.932,179.158 180.514,181.293 179.116 C 182.257 178.485,182.527 178.400,182.527 178.729 M4.895 219.544 L 2.597 221.850 2.597 227.990 L 2.597 234.129 4.904 236.427 L 7.210 238.725 14.703 238.725 L 22.196 238.725 22.196 240.850 L 22.196 242.975 12.279 242.975 C 6.824 242.975,2.361 243.005,2.361 243.041 C 2.361 243.242,4.450 250.337,4.534 250.421 C 4.589 250.476,9.246 250.528,14.883 250.536 L 25.132 250.551 27.438 248.357 L 29.744 246.163 29.748 240.846 L 29.752 235.528 27.446 233.231 L 25.139 230.933 17.764 230.933 L 10.390 230.933 10.390 227.863 L 10.390 224.793 15.584 224.793 L 20.779 224.793 20.779 226.446 L 20.779 228.099 24.675 228.099 L 28.571 228.099 28.571 224.966 L 28.571 221.833 26.265 219.535 L 23.958 217.237 15.576 217.237 L 7.193 217.237 4.895 219.544 M37.072 234.002 L 37.072 250.767 49.941 250.767 C 60.075 250.767,62.811 250.705,62.816 250.472 C 62.820 250.310,62.368 248.557,61.813 246.577 L 60.803 242.976 52.834 242.976 L 44.864 242.975 44.864 240.378 L 44.864 237.780 52.436 237.780 C 59.537 237.780,60.001 237.755,59.886 237.367 C 59.819 237.140,59.488 235.945,59.151 234.711 C 58.814 233.477,58.381 231.910,58.189 231.228 L 57.838 229.988 51.351 229.988 L 44.864 229.988 44.864 227.391 L 44.864 224.793 53.837 224.793 C 58.772 224.793,62.813 224.714,62.816 224.616 C 62.820 224.519,62.368 222.819,61.813 220.839 L 60.803 217.238 48.937 217.238 L 37.072 217.237 37.072 234.002 M67.064 217.414 C 67.067 217.512,67.407 218.654,67.822 219.953 L 68.575 222.314 68.703 236.482 L 68.831 250.649 72.668 250.714 L 76.505 250.779 76.505 244.162 L 76.505 237.544 79.044 237.549 L 81.582 237.553 85.001 244.032 L 88.419 250.512 92.757 250.581 C 95.142 250.618,97.122 250.596,97.155 250.531 C 97.189 250.466,95.580 247.345,93.580 243.595 C 91.580 239.846,89.975 236.752,90.013 236.722 C 90.051 236.691,91.437 235.887,93.093 234.935 L 96.104 233.203 96.104 227.518 L 96.104 221.833 93.797 219.535 L 91.491 217.237 79.276 217.237 C 72.557 217.237,67.062 217.317,67.064 217.414 M103.188 234.002 L 103.188 250.767 116.057 250.767 C 126.008 250.767,128.926 250.702,128.926 250.480 C 128.926 250.322,128.474 248.569,127.922 246.584 L 126.919 242.975 118.949 242.975 L 110.980 242.975 110.980 240.378 L 110.980 237.780 118.536 237.780 C 122.692 237.780,126.092 237.742,126.092 237.695 C 126.092 237.616,124.346 231.350,124.060 230.401 C 123.945 230.021,123.422 229.988,117.458 229.988 L 110.980 229.988 110.980 227.391 L 110.980 224.793 119.980 224.793 L 128.981 224.793 128.845 224.262 C 128.770 223.970,128.308 222.270,127.819 220.484 L 126.929 217.237 115.058 217.237 L 103.188 217.237 103.188 234.002 M135.595 233.943 L 135.655 250.649 139.490 250.714 L 143.324 250.779 143.386 240.325 L 143.447 229.871 146.976 237.663 C 150.440 245.311,150.544 245.504,152.632 248.111 L 154.760 250.767 159.080 250.767 L 163.400 250.767 163.400 234.002 L 163.400 217.237 159.507 217.237 L 155.613 217.237 155.551 227.518 L 155.490 237.798 152.089 230.302 C 149.012 223.521,148.494 222.541,146.658 220.028 L 144.628 217.251 140.081 217.244 L 135.534 217.237 135.595 233.943 M171.429 234.008 L 171.429 250.779 175.266 250.714 L 179.103 250.649 179.163 233.943 L 179.224 217.237 175.326 217.237 L 171.429 217.237 171.429 234.008 M185.124 217.428 C 185.124 217.532,185.588 219.206,186.155 221.147 L 187.186 224.675 191.466 224.740 L 195.746 224.804 195.807 237.727 L 195.868 250.649 199.646 250.649 L 203.424 250.649 203.485 237.721 L 203.546 224.793 208.942 224.793 L 214.338 224.793 213.249 221.018 L 212.161 217.242 198.642 217.240 C 191.207 217.238,185.124 217.323,185.124 217.428 M217.473 217.303 C 217.473 217.344,220.235 221.411,223.611 226.340 L 229.748 235.301 229.750 243.040 L 229.752 250.779 233.589 250.714 L 237.426 250.649 237.489 242.887 L 237.551 235.124 240.204 231.248 C 241.663 229.116,243.497 226.446,244.279 225.315 C 245.062 224.184,246.631 221.904,247.766 220.248 L 249.830 217.237 245.263 217.237 L 240.696 217.237 237.207 222.326 C 235.287 225.124,233.629 227.382,233.521 227.343 C 233.414 227.304,231.796 225.041,229.927 222.314 L 226.528 217.355 222.001 217.291 C 219.511 217.256,217.473 217.261,217.473 217.303 M271.368 233.943 L 271.429 250.649 284.357 250.710 C 291.467 250.744,297.285 250.709,297.285 250.633 C 297.285 250.525,295.959 245.808,295.249 243.388 C 295.136 243.005,294.542 242.975,287.115 242.975 L 279.103 242.975 279.103 230.106 L 279.103 217.237 275.205 217.237 L 271.307 217.237 271.368 233.943 M307.897 220.234 L 308.777 223.231 308.366 224.544 C 306.395 230.836,301.361 246.819,300.836 248.454 C 300.472 249.585,300.233 250.568,300.304 250.638 C 300.592 250.927,307.880 250.771,308.073 250.472 C 308.178 250.310,308.640 249.008,309.099 247.580 L 309.933 244.982 315.618 244.919 L 321.303 244.856 322.201 247.683 L 323.099 250.510 326.980 250.580 C 329.114 250.618,330.888 250.596,330.921 250.531 C 330.975 250.423,322.886 224.503,322.373 223.140 C 322.250 222.816,321.324 221.355,320.314 219.894 L 318.478 217.237 312.747 217.237 L 307.016 217.237 307.897 220.234 M334.357 217.378 C 334.357 217.456,334.782 218.959,335.301 220.719 L 336.246 223.918 336.246 237.351 L 336.246 250.784 348.371 250.717 L 360.496 250.649 362.764 248.288 L 365.033 245.927 365.043 241.895 L 365.053 237.863 363.518 236.071 C 362.674 235.086,361.983 234.188,361.983 234.075 C 361.983 233.963,362.674 233.186,363.518 232.349 L 365.053 230.828 365.045 226.335 L 365.036 221.842 362.806 219.540 L 360.575 217.237 347.466 217.237 C 340.256 217.237,334.357 217.301,334.357 217.378 M374.435 219.544 L 372.137 221.850 372.137 227.939 L 372.137 234.028 374.416 236.376 L 376.695 238.725 384.215 238.725 L 391.736 238.725 391.736 240.850 L 391.736 242.975 381.818 242.975 C 376.364 242.975,371.901 243.005,371.901 243.041 C 371.901 243.242,373.989 250.337,374.073 250.421 C 374.129 250.476,378.789 250.529,384.430 250.538 L 394.687 250.554 396.989 248.371 L 399.292 246.188 399.292 240.858 L 399.292 235.528 396.985 233.231 L 394.679 230.933 387.304 230.933 L 379.929 230.933 379.929 227.863 L 379.929 224.793 385.124 224.793 L 390.319 224.793 390.319 226.446 L 390.319 228.099 394.215 228.099 L 398.111 228.099 398.111 224.966 L 398.111 221.833 395.805 219.535 L 393.498 217.237 385.115 217.237 L 376.733 217.237 374.435 219.544 M88.548 227.391 L 88.548 229.988 82.527 229.988 L 76.505 229.988 76.505 227.391 L 76.505 224.793 82.527 224.793 L 88.548 224.793 88.548 227.391 M357.497 227.509 L 357.497 229.988 350.649 229.988 L 343.802 229.988 343.802 227.509 L 343.802 225.030 350.649 225.030 L 357.497 225.030 357.497 227.509 M317.346 232.236 C 318.253 235.077,318.959 237.436,318.916 237.479 C 318.873 237.522,317.357 237.528,315.546 237.492 L 312.255 237.426 313.904 232.176 C 314.811 229.288,315.585 226.959,315.625 226.999 C 315.665 227.039,316.440 229.396,317.346 232.236 M357.497 240.260 L 357.497 242.739 350.649 242.739 L 343.802 242.739 343.802 240.260 L 343.802 237.780 350.649 237.780 L 357.497 237.780 357.497 240.260 " stroke="none" fill="#04147b" fill-rule="evenodd"></path><path id="path1" d="M188.725 1.107 C 188.952 1.167,189.324 1.167,189.551 1.107 C 189.779 1.048,189.593 0.999,189.138 0.999 C 188.684 0.999,188.498 1.048,188.725 1.107 M203.424 21.960 C 203.931 22.479,204.399 22.904,204.464 22.904 C 204.529 22.904,204.167 22.479,203.660 21.960 C 203.153 21.440,202.685 21.015,202.620 21.015 C 202.555 21.015,202.917 21.440,203.424 21.960 M198.583 24.395 C 198.583 24.436,198.929 24.781,199.351 25.162 L 200.118 25.856 199.425 25.089 C 198.778 24.373,198.583 24.213,198.583 24.395 M175.043 43.388 C 176.576 43.429,179.020 43.429,180.474 43.387 C 181.927 43.346,180.673 43.312,177.686 43.313 C 174.699 43.313,173.510 43.347,175.043 43.388 M198.760 43.388 C 200.611 43.428,203.639 43.428,205.490 43.388 C 207.341 43.348,205.826 43.315,202.125 43.315 C 198.424 43.315,196.910 43.348,198.760 43.388 M195.346 48.818 C 196.228 48.863,197.610 48.863,198.416 48.817 C 199.222 48.771,198.501 48.734,196.812 48.734 C 195.124 48.734,194.464 48.772,195.346 48.818 M257.000 52.774 C 257.000 54.593,257.037 55.305,257.082 54.358 C 257.127 53.411,257.127 51.923,257.082 51.052 C 257.036 50.181,257.000 50.956,257.000 52.774 M186.836 51.651 C 187.713 51.696,189.147 51.696,190.024 51.651 C 190.900 51.605,190.183 51.568,188.430 51.568 C 186.677 51.568,185.959 51.605,186.836 51.651 M203.837 51.651 C 204.714 51.696,206.148 51.696,207.025 51.651 C 207.901 51.605,207.184 51.568,205.431 51.568 C 203.678 51.568,202.960 51.605,203.837 51.651 M124.054 56.907 C 124.054 58.270,124.093 58.828,124.141 58.146 C 124.189 57.465,124.189 56.349,124.141 55.667 C 124.093 54.985,124.054 55.543,124.054 56.907 M212.347 54.957 C 213.230 55.002,214.611 55.002,215.417 54.956 C 216.223 54.910,215.502 54.873,213.813 54.873 C 212.125 54.874,211.465 54.911,212.347 54.957 M257.225 68.477 C 257.225 69.581,257.266 70.032,257.316 69.481 C 257.365 68.929,257.365 68.025,257.316 67.473 C 257.266 66.921,257.225 67.373,257.225 68.477 M123.822 74.144 C 123.822 75.767,123.860 76.432,123.906 75.620 C 123.952 74.808,123.952 73.480,123.906 72.668 C 123.860 71.857,123.822 72.521,123.822 74.144 M123.790 78.040 C 123.793 78.560,123.841 78.744,123.898 78.451 C 123.954 78.157,123.952 77.732,123.893 77.506 C 123.834 77.280,123.788 77.521,123.790 78.040 M208.252 79.516 L 207.438 80.401 208.323 79.588 C 209.148 78.830,209.318 78.630,209.137 78.630 C 209.098 78.630,208.699 79.029,208.252 79.516 M257.475 87.013 C 257.475 89.091,257.511 89.909,257.555 88.832 C 257.599 87.754,257.598 86.054,257.554 85.054 C 257.510 84.053,257.474 84.935,257.475 87.013 M183.515 89.433 C 185.682 89.472,189.295 89.472,191.543 89.433 C 193.792 89.394,192.019 89.362,187.603 89.362 C 183.188 89.362,181.348 89.394,183.515 89.433 M276.600 95.159 C 276.600 97.172,276.637 97.996,276.681 96.989 C 276.725 95.983,276.725 94.336,276.681 93.329 C 276.637 92.323,276.600 93.146,276.600 95.159 M104.461 103.188 C 104.461 104.941,104.498 105.658,104.543 104.782 C 104.589 103.905,104.589 102.470,104.543 101.594 C 104.498 100.717,104.461 101.434,104.461 103.188 M100.907 106.848 C 100.908 107.887,100.950 108.282,101.000 107.727 C 101.050 107.172,101.049 106.321,100.998 105.838 C 100.947 105.354,100.907 105.809,100.907 106.848 M276.829 118.772 C 276.829 120.136,276.868 120.694,276.916 120.012 C 276.963 119.330,276.963 118.214,276.916 117.532 C 276.868 116.851,276.829 117.409,276.829 118.772 M104.224 124.085 C 104.224 125.773,104.262 126.433,104.308 125.551 C 104.353 124.669,104.353 123.288,104.307 122.481 C 104.261 121.675,104.224 122.397,104.224 124.085 M216.352 136.420 C 217.099 136.467,218.321 136.467,219.067 136.420 C 219.814 136.373,219.203 136.335,217.710 136.335 C 216.216 136.335,215.605 136.373,216.352 136.420 M229.747 143.506 L 227.745 145.573 229.811 143.571 C 231.730 141.711,231.985 141.440,231.813 141.440 C 231.778 141.440,230.848 142.370,229.747 143.506 M126.919 169.540 C 127.690 170.319,128.374 170.956,128.439 170.956 C 128.504 170.956,127.926 170.319,127.155 169.540 C 126.384 168.760,125.700 168.123,125.635 168.123 C 125.570 168.123,126.147 168.760,126.919 169.540 M190.142 172.064 C 190.369 172.123,190.741 172.123,190.968 172.064 C 191.195 172.004,191.009 171.956,190.555 171.956 C 190.100 171.956,189.914 172.004,190.142 172.064 M188.725 175.369 C 188.952 175.429,189.324 175.429,189.551 175.369 C 189.779 175.310,189.593 175.261,189.138 175.261 C 188.684 175.261,188.498 175.310,188.725 175.369 M153.475 181.523 L 152.184 182.881 153.542 181.590 C 154.803 180.391,155.008 180.165,154.833 180.165 C 154.796 180.165,154.185 180.776,153.475 181.523 M169.835 181.285 C 170.711 181.330,172.146 181.330,173.022 181.285 C 173.899 181.239,173.182 181.202,171.429 181.202 C 169.675 181.202,168.958 181.239,169.835 181.285 M347.166 237.957 C 349.082 237.997,352.217 237.997,354.132 237.957 C 356.048 237.917,354.481 237.885,350.649 237.885 C 346.818 237.885,345.251 237.917,347.166 237.957 " stroke="none" fill="#040c5f" fill-rule="evenodd"></path><path id="path2" d="M181.110 1.199 C 177.553 1.537,174.250 1.956,174.352 2.058 C 174.406 2.112,176.135 1.988,178.194 1.781 C 180.252 1.575,183.318 1.317,185.006 1.209 L 188.076 1.012 185.596 1.011 C 184.233 1.010,182.214 1.095,181.110 1.199 M197.757 1.189 C 199.185 1.306,201.772 1.572,203.506 1.780 C 205.239 1.988,206.703 2.112,206.759 2.057 C 206.972 1.843,200.696 1.124,197.993 1.052 L 195.159 0.976 197.757 1.189 M166.706 3.443 C 161.836 4.620,156.431 6.248,153.663 7.371 C 150.811 8.528,151.645 8.374,155.150 7.097 C 158.829 5.757,163.948 4.324,169.102 3.192 C 171.096 2.754,172.355 2.394,171.901 2.391 C 171.446 2.388,169.109 2.862,166.706 3.443 M212.043 3.211 C 217.193 4.359,217.697 4.393,213.577 3.315 C 211.629 2.805,209.664 2.390,209.209 2.392 C 208.754 2.394,210.030 2.763,212.043 3.211 M217.710 4.473 C 219.113 4.967,224.146 6.393,224.221 6.318 C 224.356 6.183,219.086 4.539,218.064 4.397 C 217.344 4.297,217.260 4.315,217.710 4.473 M224.580 6.477 C 224.746 6.643,229.363 8.260,229.442 8.181 C 229.550 8.073,225.194 6.375,224.808 6.375 C 224.627 6.375,224.524 6.421,224.580 6.477 M150.885 8.423 C 148.611 9.199,140.735 13.166,135.629 16.107 C 132.375 17.982,126.805 21.905,123.992 24.303 C 123.134 25.035,122.113 25.878,121.724 26.177 C 119.153 28.147,111.017 36.479,108.318 39.906 C 105.167 43.906,102.646 47.517,99.544 52.472 C 95.595 58.780,89.108 74.437,88.462 79.221 C 88.369 79.910,88.459 79.751,88.797 78.630 C 98.447 46.644,118.139 23.560,146.920 10.496 C 151.425 8.451,151.751 8.294,151.476 8.298 C 151.346 8.300,151.080 8.356,150.885 8.423 M229.752 8.326 C 229.817 8.392,231.198 9.052,232.822 9.793 C 234.445 10.534,236.339 11.399,237.030 11.714 C 237.721 12.029,238.231 12.198,238.163 12.089 C 238.022 11.861,231.113 8.628,230.224 8.374 C 229.900 8.282,229.687 8.260,229.752 8.326 M239.197 12.772 C 239.652 13.032,241.352 13.994,242.975 14.910 C 262.816 26.101,279.061 44.480,287.968 65.813 C 288.909 68.067,289.299 68.623,288.661 66.802 C 287.632 63.867,282.511 53.608,281.363 52.184 C 281.206 51.989,280.606 51.048,280.031 50.091 C 279.455 49.135,278.878 48.178,278.749 47.965 C 274.756 41.407,262.876 28.369,256.907 23.993 C 256.533 23.719,255.397 22.861,254.383 22.085 C 252.666 20.774,250.291 19.084,249.392 18.536 C 249.179 18.406,248.352 17.848,247.554 17.296 C 246.756 16.744,246.032 16.293,245.945 16.293 C 245.857 16.293,245.233 15.942,244.558 15.513 C 243.002 14.525,238.818 12.275,238.563 12.289 C 238.457 12.295,238.743 12.512,239.197 12.772 M187.556 17.018 C 186.751 17.142,185.848 17.343,185.549 17.463 C 185.173 17.616,185.369 17.633,186.187 17.519 C 186.836 17.429,189.112 17.358,191.244 17.361 C 193.574 17.365,194.799 17.295,194.314 17.186 C 192.933 16.876,189.090 16.780,187.556 17.018 M196.576 18.044 C 200.567 19.580,203.057 21.401,204.847 24.094 C 207.969 28.791,207.366 34.085,203.214 38.431 C 202.225 39.466,201.417 40.421,201.417 40.554 C 201.417 41.281,208.004 41.347,208.724 40.626 C 209.258 40.093,210.002 38.731,209.845 38.574 C 209.787 38.516,209.530 38.871,209.275 39.364 C 208.587 40.695,208.171 40.816,204.759 40.675 C 203.116 40.607,201.743 40.529,201.710 40.502 C 201.676 40.475,202.367 39.706,203.245 38.795 C 210.198 31.575,207.183 21.433,197.047 17.945 C 195.172 17.300,194.830 17.371,196.576 18.044 M182.135 18.757 C 173.487 23.086,171.589 32.541,178.079 38.967 L 179.742 40.614 176.235 40.612 L 172.727 40.611 172.219 39.845 C 171.940 39.424,171.440 38.548,171.109 37.898 C 170.128 35.976,170.529 38.824,171.669 41.870 L 172.171 43.211 178.923 43.211 C 182.637 43.211,185.612 43.149,185.536 43.072 C 185.460 42.996,182.482 42.947,178.918 42.964 L 172.439 42.994 171.914 41.773 C 171.289 40.319,170.980 38.560,171.478 39.288 C 171.646 39.533,172.041 40.049,172.356 40.435 L 172.930 41.137 176.294 41.050 C 180.424 40.943,180.375 40.993,178.356 38.902 C 176.349 36.824,175.521 35.450,174.940 33.237 C 173.922 29.359,174.592 26.424,177.349 22.696 C 178.266 21.455,180.686 19.704,182.881 18.694 C 184.050 18.156,184.831 17.715,184.617 17.713 C 184.403 17.711,183.286 18.181,182.135 18.757 M187.759 21.531 C 186.181 21.884,186.691 21.950,188.725 21.657 C 190.072 21.463,191.038 21.463,192.385 21.657 C 194.505 21.963,194.908 21.886,193.157 21.511 C 191.720 21.203,189.187 21.212,187.759 21.531 M185.263 22.331 C 179.813 24.328,176.686 31.870,179.144 37.090 C 180.283 39.510,183.933 43.300,184.540 42.694 C 184.601 42.632,184.127 42.243,183.487 41.828 C 176.162 37.081,177.234 26.268,185.396 22.561 C 186.786 21.929,186.712 21.801,185.263 22.331 M196.576 22.967 C 204.351 27.127,204.622 37.567,197.075 42.224 L 195.667 43.093 202.139 43.156 C 209.817 43.231,208.988 43.455,209.766 41.099 C 210.481 38.936,210.859 36.633,210.372 37.405 C 210.216 37.652,210.057 38.323,210.019 38.896 C 209.980 39.468,209.704 40.620,209.404 41.456 L 208.859 42.975 202.741 42.975 L 196.624 42.975 198.142 41.826 C 203.646 37.659,204.544 31.155,200.370 25.688 C 199.504 24.554,196.239 22.191,195.553 22.202 C 195.336 22.206,195.797 22.550,196.576 22.967 M239.714 50.238 C 236.841 58.516,233.651 67.680,232.625 70.602 C 229.197 80.372,226.210 89.147,226.210 89.446 C 226.210 89.821,232.871 103.188,233.058 103.188 C 233.134 103.188,235.520 97.423,238.361 90.378 C 244.017 76.351,252.503 55.399,254.914 49.507 L 256.445 45.767 255.268 44.408 C 253.616 42.502,248.370 37.792,245.314 35.472 C 244.981 35.219,244.339 36.912,239.714 50.238 M133.766 37.133 C 132.597 38.068,130.077 40.377,128.166 42.262 L 124.691 45.691 125.712 48.170 C 126.782 50.771,135.499 72.279,141.359 86.777 C 143.248 91.452,144.887 95.437,144.999 95.632 C 145.537 96.562,145.140 95.168,144.304 93.190 C 143.208 90.599,141.610 86.703,140.318 83.471 C 139.798 82.172,138.882 79.928,138.282 78.483 C 137.681 77.038,137.190 75.780,137.190 75.687 C 137.190 75.594,136.778 74.545,136.273 73.355 C 135.769 72.166,134.909 70.077,134.362 68.713 C 133.814 67.349,132.914 65.118,132.360 63.754 C 131.806 62.391,130.903 60.159,130.352 58.796 C 128.913 55.233,127.359 51.446,126.333 48.996 C 124.950 45.698,124.949 45.808,126.386 44.261 C 127.639 42.912,133.262 37.842,135.083 36.419 L 136.069 35.648 136.646 37.245 C 136.964 38.124,137.440 39.460,137.705 40.214 C 137.970 40.968,138.229 41.543,138.280 41.492 C 138.442 41.330,136.374 35.571,136.128 35.500 C 135.998 35.462,134.935 36.197,133.766 37.133 M246.803 37.013 C 247.703 37.760,248.830 38.668,249.308 39.031 C 249.786 39.395,251.518 41.027,253.158 42.658 L 256.139 45.624 255.696 46.838 C 255.453 47.506,254.941 48.796,254.559 49.705 C 254.176 50.614,253.318 52.686,252.651 54.309 C 251.486 57.147,251.140 57.991,249.223 62.692 C 248.746 63.861,248.063 65.561,247.704 66.470 C 246.207 70.265,245.509 72.003,244.765 73.790 C 243.141 77.692,242.030 80.431,241.700 81.346 C 241.513 81.865,240.651 83.991,239.784 86.068 C 238.918 88.146,238.069 90.272,237.898 90.791 C 237.727 91.311,237.347 92.267,237.054 92.916 C 236.548 94.036,235.355 97.020,234.093 100.321 C 233.014 103.144,233.373 103.485,229.736 96.188 L 226.457 89.610 226.782 88.430 C 226.960 87.780,227.444 86.346,227.856 85.242 C 228.269 84.138,228.746 82.757,228.916 82.172 C 229.087 81.588,229.865 79.303,230.645 77.096 C 231.426 74.888,232.247 72.550,232.470 71.901 C 232.693 71.251,233.249 69.711,233.706 68.477 C 234.162 67.243,234.671 65.756,234.835 65.171 C 234.999 64.587,235.500 63.099,235.948 61.865 C 236.395 60.632,237.000 58.932,237.293 58.087 C 237.585 57.243,238.726 53.949,239.828 50.767 C 240.930 47.586,242.310 43.601,242.895 41.913 C 243.480 40.224,244.189 38.127,244.470 37.252 C 245.084 35.343,244.822 35.370,246.803 37.013 M138.371 42.027 C 138.371 42.421,140.071 47.021,140.177 46.915 C 140.269 46.823,138.675 42.020,138.492 41.837 C 138.425 41.771,138.371 41.856,138.371 42.027 M122.886 47.649 C 115.432 56.247,108.436 68.477,105.425 78.178 L 105.015 79.497 105.857 81.366 C 106.320 82.394,107.777 85.891,109.096 89.138 C 111.541 95.160,116.719 107.789,119.359 114.168 C 120.165 116.116,121.334 118.960,121.958 120.489 C 122.581 122.018,123.146 123.214,123.213 123.147 C 123.280 123.080,122.880 121.935,122.323 120.603 C 121.767 119.271,120.833 117.013,120.248 115.584 C 119.663 114.156,118.785 112.031,118.298 110.862 C 117.810 109.693,116.961 107.621,116.411 106.257 C 115.861 104.894,115.003 102.822,114.506 101.653 C 113.591 99.503,112.626 97.111,111.457 94.097 C 111.104 93.188,110.495 91.700,110.102 90.791 C 108.448 86.958,107.438 84.483,107.438 84.258 C 107.438 84.126,107.030 83.204,106.530 82.209 C 105.271 79.700,105.242 79.476,105.930 77.568 C 106.258 76.659,106.794 75.171,107.122 74.262 C 108.022 71.765,111.150 65.137,112.344 63.200 C 112.652 62.700,113.176 61.797,113.508 61.193 C 114.258 59.828,117.969 54.276,119.175 52.713 C 119.668 52.075,120.388 51.137,120.775 50.629 C 121.163 50.121,122.013 49.081,122.664 48.318 L 123.849 46.932 123.980 49.381 L 124.111 51.830 124.157 49.174 C 124.209 46.156,124.195 46.139,122.886 47.649 M257.149 46.603 C 257.146 46.715,257.659 47.406,258.289 48.138 C 259.979 50.100,261.386 51.878,262.578 53.557 C 263.160 54.377,264.011 55.546,264.470 56.155 C 265.248 57.188,266.262 58.802,268.278 62.220 C 270.254 65.568,272.770 70.901,274.460 75.325 C 275.997 79.345,275.989 79.231,274.885 81.639 C 274.364 82.776,273.784 84.132,273.596 84.652 C 273.408 85.171,272.595 87.190,271.788 89.138 C 270.982 91.086,270.116 93.211,269.863 93.861 C 269.610 94.510,269.046 95.891,268.609 96.930 C 268.172 97.969,267.311 100.041,266.695 101.535 C 266.079 103.028,265.166 105.219,264.665 106.404 C 264.164 107.588,263.754 108.630,263.754 108.719 C 263.754 108.808,263.294 109.964,262.731 111.288 C 262.168 112.612,261.251 114.811,260.694 116.175 C 260.137 117.538,259.329 119.504,258.900 120.543 C 258.470 121.582,257.595 123.707,256.954 125.266 C 256.313 126.824,255.332 129.189,254.774 130.521 C 254.217 131.852,253.817 132.998,253.886 133.067 C 253.955 133.136,254.435 132.153,254.954 130.882 C 260.455 117.413,273.554 85.557,274.677 82.917 C 276.380 78.915,276.427 79.570,273.994 73.436 C 271.400 66.897,267.967 60.578,263.956 54.964 C 261.484 51.503,257.162 46.194,257.149 46.603 M140.322 47.698 C 140.391 48.022,141.107 50.148,141.912 52.420 C 142.717 54.693,143.626 57.296,143.931 58.205 C 144.237 59.115,145.064 61.505,145.770 63.518 C 146.476 65.531,147.348 68.028,147.708 69.067 C 148.921 72.570,149.785 74.851,149.867 74.769 C 149.964 74.672,140.516 47.398,140.325 47.226 C 140.254 47.161,140.252 47.373,140.322 47.698 M193.625 59.754 L 193.625 70.629 192.621 70.557 L 191.617 70.484 191.556 61.098 L 191.494 51.712 188.309 51.712 L 185.124 51.712 185.124 61.132 L 185.124 70.553 182.746 73.352 C 179.890 76.714,180.193 76.581,178.681 75.139 C 178.004 74.494,177.082 73.646,176.633 73.256 L 175.817 72.547 177.236 70.925 C 181.028 66.592,180.946 67.101,178.217 64.841 L 176.033 63.032 175.325 63.921 C 174.935 64.409,173.711 65.873,172.605 67.174 C 171.498 68.475,169.925 70.353,169.108 71.348 L 167.622 73.157 170.038 76.425 C 175.667 84.040,179.170 88.684,179.480 88.941 C 179.716 89.137,182.498 89.235,189.199 89.283 L 198.587 89.351 199.672 88.300 C 200.269 87.722,204.412 83.456,208.879 78.821 L 217.001 70.392 217.001 62.705 L 217.001 55.018 213.813 55.018 L 210.626 55.018 210.626 62.823 L 210.626 70.629 209.622 70.557 L 208.619 70.484 208.557 61.098 L 208.495 51.712 205.428 51.712 L 202.361 51.712 202.358 60.862 C 202.354 70.850,202.378 70.669,201.039 70.559 L 200.118 70.484 200.057 59.681 L 199.995 48.878 196.810 48.878 L 193.625 48.878 193.625 59.754 M199.764 59.988 L 199.764 70.862 201.122 70.791 L 202.479 70.720 202.541 61.334 L 202.603 51.948 205.431 51.948 L 208.259 51.948 208.321 61.334 L 208.383 70.720 209.540 70.794 C 211.143 70.895,211.090 71.165,211.094 62.751 L 211.098 55.254 213.932 55.254 L 216.765 55.254 216.765 62.697 L 216.765 70.140 215.053 71.968 C 211.697 75.550,209.986 77.344,206.257 81.185 C 198.007 89.684,198.694 89.058,197.578 89.094 C 197.027 89.112,192.798 89.103,188.180 89.073 L 179.784 89.020 178.617 87.472 C 177.975 86.621,177.131 85.510,176.741 85.003 C 176.352 84.497,175.237 82.989,174.264 81.652 C 173.291 80.315,171.511 77.908,170.309 76.303 C 169.107 74.699,168.123 73.334,168.123 73.270 C 168.123 72.993,169.361 71.382,171.172 69.303 C 171.398 69.044,172.465 67.769,173.543 66.470 C 174.621 65.171,175.640 63.962,175.807 63.782 C 176.096 63.474,178.858 65.415,179.877 66.643 C 180.126 66.944,178.487 69.441,177.588 70.130 C 177.207 70.422,175.681 72.443,175.698 72.634 C 175.709 72.750,176.692 73.718,177.882 74.784 L 180.047 76.722 181.228 75.452 C 181.877 74.754,183.073 73.416,183.884 72.479 L 185.360 70.775 185.360 61.361 L 185.360 51.948 188.312 51.948 L 191.263 51.948 191.263 61.393 L 191.263 70.838 192.562 70.838 L 193.861 70.838 193.861 59.976 L 193.861 49.115 196.812 49.115 L 199.764 49.115 199.764 59.988 M257.282 61.157 C 257.336 67.586,257.450 77.069,257.536 82.231 C 257.655 89.433,257.626 91.617,257.410 91.617 C 257.255 91.617,257.088 91.485,257.039 91.322 C 254.729 83.656,251.982 74.808,251.881 74.706 C 251.846 74.672,248.850 83.624,245.222 94.599 L 238.625 114.554 244.091 125.488 L 249.556 136.422 247.965 140.289 L 246.373 144.156 244.886 144.321 C 243.144 144.515,242.551 144.701,243.592 144.728 C 245.072 144.765,246.557 144.446,246.690 144.062 C 246.763 143.854,247.084 143.099,247.403 142.385 C 247.723 141.671,248.398 140.018,248.903 138.713 L 249.821 136.340 244.392 125.490 C 241.406 119.522,238.963 114.529,238.962 114.394 C 238.962 114.259,239.370 112.983,239.869 111.560 C 240.369 110.137,240.941 108.442,241.142 107.792 C 241.342 107.143,241.797 105.762,242.151 104.723 C 243.842 99.772,244.954 96.430,246.865 90.555 C 248.005 87.048,249.334 83.011,249.818 81.582 C 250.301 80.153,250.943 78.165,251.243 77.164 L 251.789 75.343 252.787 78.463 C 253.335 80.178,254.208 82.963,254.726 84.652 C 257.873 94.904,257.753 95.072,257.659 80.519 C 257.618 74.221,257.494 64.658,257.384 59.268 L 257.185 49.469 257.282 61.157 M123.651 64.974 C 123.421 80.628,123.453 92.090,123.725 92.090 C 124.097 92.090,124.573 91.137,125.021 89.492 C 125.251 88.648,125.840 86.682,126.329 85.124 C 126.818 83.566,127.454 81.494,127.743 80.519 C 128.032 79.545,128.501 77.975,128.785 77.030 L 129.301 75.312 129.834 77.030 C 130.766 80.030,131.846 82.976,131.926 82.735 C 131.968 82.607,131.369 80.702,130.595 78.501 C 129.820 76.299,129.181 74.553,129.174 74.620 C 129.148 74.880,127.489 80.392,125.999 85.171 C 125.141 87.924,124.439 90.321,124.439 90.497 C 124.439 90.674,124.273 91.025,124.069 91.277 C 123.733 91.694,123.713 90.033,123.844 73.022 C 123.924 62.730,123.948 54.309,123.898 54.309 C 123.849 54.309,123.737 59.108,123.651 64.974 M289.093 68.536 C 289.337 69.174,291.875 76.948,292.312 78.394 C 292.651 79.516,292.741 79.675,292.648 78.985 C 292.416 77.265,289.429 68.241,289.092 68.241 C 289.031 68.241,289.031 68.374,289.093 68.536 M150.093 75.814 C 150.180 76.259,150.712 77.823,151.276 79.290 C 151.841 80.757,152.302 82.086,152.302 82.243 C 152.302 82.399,152.718 83.618,153.226 84.951 C 153.734 86.284,154.281 87.889,154.443 88.518 L 154.736 89.661 152.285 94.580 C 150.938 97.286,149.447 100.237,148.972 101.139 L 148.109 102.778 147.601 101.389 C 146.902 99.480,145.397 96.083,145.295 96.184 C 145.195 96.285,147.811 102.745,148.072 103.042 C 148.173 103.156,149.800 100.162,151.687 96.389 L 155.119 89.528 152.638 82.376 C 150.151 75.211,149.800 74.306,150.093 75.814 M292.858 80.579 C 294.520 88.293,295.176 92.245,295.746 97.993 L 296.085 101.417 295.989 98.819 C 295.822 94.309,293.444 80.047,292.858 80.047 C 292.795 80.047,292.795 80.286,292.858 80.579 M87.275 83.752 C 86.806 85.676,86.430 87.568,86.439 87.957 C 86.449 88.347,86.872 86.813,87.380 84.549 C 88.513 79.501,88.442 78.963,87.275 83.752 M276.560 84.770 L 276.601 88.430 276.730 85.478 L 276.860 82.527 277.276 84.298 C 277.979 87.286,278.645 90.657,279.119 93.625 C 279.435 95.605,279.534 95.967,279.445 94.827 C 279.190 91.545,277.367 82.609,276.720 81.464 C 276.605 81.261,276.537 82.668,276.560 84.770 M104.161 82.349 C 103.717 84.090,103.622 85.053,104.003 83.943 C 104.296 83.091,104.336 83.671,104.411 89.847 L 104.494 96.694 104.549 89.079 C 104.605 81.382,104.569 80.750,104.161 82.349 M132.231 84.035 C 132.231 84.359,136.672 97.862,139.074 104.841 C 139.499 106.074,140.031 107.721,140.256 108.501 C 140.482 109.280,141.000 110.814,141.408 111.911 C 142.421 114.635,142.747 113.672,136.781 125.536 L 131.413 136.210 131.867 137.585 C 132.117 138.342,132.767 140.024,133.311 141.322 C 133.856 142.621,134.752 144.799,135.303 146.163 C 135.854 147.527,136.770 149.718,137.338 151.032 C 137.906 152.346,138.371 153.502,138.371 153.601 C 138.371 153.700,138.781 154.750,139.281 155.934 C 139.782 157.118,140.696 159.309,141.313 160.803 C 141.930 162.296,142.848 164.492,143.354 165.681 C 143.860 166.871,144.274 167.942,144.274 168.062 C 144.274 168.331,145.792 171.845,145.997 172.049 C 146.078 172.131,146.659 171.868,147.288 171.464 C 148.590 170.629,151.554 169.600,153.478 169.317 C 154.473 169.170,154.586 169.119,153.955 169.100 C 152.562 169.057,150.156 169.743,148.111 170.767 C 147.039 171.304,146.122 171.698,146.074 171.645 C 146.025 171.591,144.601 168.146,142.910 163.991 C 141.218 159.835,138.017 152.001,135.797 146.583 C 133.576 141.165,131.759 136.622,131.759 136.488 C 131.759 136.354,134.196 131.370,137.175 125.413 L 142.592 114.583 137.505 99.263 C 132.571 84.402,132.231 83.420,132.231 84.035 M102.972 87.440 C 102.278 90.734,101.767 93.941,101.799 94.805 C 101.816 95.246,101.905 95.023,102.036 94.215 C 102.151 93.501,102.572 91.181,102.972 89.059 C 103.780 84.775,103.780 83.609,102.972 87.440 M159.826 91.322 C 159.430 92.199,156.499 98.760,153.313 105.903 C 150.127 113.046,145.877 122.556,143.867 127.037 C 141.858 131.517,140.159 135.418,140.093 135.706 L 139.972 136.229 183.662 136.296 C 207.691 136.333,227.419 136.431,227.501 136.513 C 227.583 136.595,227.435 137.274,227.173 138.022 C 225.030 144.118,216.789 149.941,210.305 149.941 C 208.256 149.941,208.440 150.275,210.759 150.766 C 217.337 152.160,223.062 149.942,229.853 143.370 C 234.804 138.579,237.757 136.544,240.177 136.258 L 241.275 136.128 240.610 134.711 C 240.245 133.932,239.941 133.453,239.934 133.648 C 239.928 133.843,240.074 134.268,240.260 134.593 C 240.766 135.479,240.690 135.720,239.847 135.897 C 237.603 136.370,233.850 139.062,229.752 143.138 C 223.630 149.228,217.722 151.722,211.752 150.735 C 210.721 150.564,210.795 150.177,211.859 150.177 C 217.477 150.177,226.905 142.294,227.787 136.860 L 227.925 136.009 214.376 135.958 C 206.924 135.930,187.181 135.947,170.503 135.996 C 144.491 136.072,140.200 136.037,140.316 135.752 C 140.489 135.324,145.255 124.598,148.175 118.064 C 148.784 116.700,149.709 114.628,150.231 113.459 C 150.752 112.290,151.631 110.325,152.184 109.091 C 152.737 107.857,153.628 105.865,154.163 104.664 C 154.698 103.462,155.552 101.550,156.061 100.413 C 156.570 99.277,157.484 97.231,158.092 95.868 C 158.700 94.504,159.557 92.618,159.998 91.677 L 160.799 89.965 169.911 89.965 L 179.022 89.965 178.893 90.614 C 178.585 92.164,178.016 97.795,178.084 98.622 C 178.125 99.120,178.352 97.774,178.590 95.632 C 178.827 93.489,179.081 91.284,179.153 90.732 L 179.285 89.728 169.916 89.728 L 160.547 89.728 159.826 91.322 M199.091 90.496 C 199.124 91.210,199.133 91.218,199.225 90.614 L 199.323 89.965 209.901 89.965 L 220.479 89.965 221.122 91.399 C 221.477 92.189,221.810 92.791,221.863 92.738 C 221.916 92.685,221.676 91.986,221.330 91.185 L 220.702 89.728 209.879 89.728 L 199.055 89.728 199.091 90.496 M85.854 91.316 C 85.286 95.273,85.010 98.087,85.040 99.637 C 85.073 101.394,85.076 101.385,85.262 98.937 C 85.365 97.574,85.623 95.093,85.835 93.425 C 86.047 91.757,86.174 90.346,86.118 90.290 C 86.062 90.234,85.943 90.696,85.854 91.316 M199.440 93.506 C 199.649 97.087,200.883 108.633,200.904 107.202 C 200.915 106.488,200.560 102.609,200.116 98.583 C 199.672 94.557,199.368 92.273,199.440 93.506 M221.967 93.159 C 221.961 93.369,223.874 97.754,225.250 100.684 C 225.500 101.217,226.126 102.609,226.640 103.778 C 227.154 104.947,228.052 106.966,228.636 108.264 C 229.219 109.563,230.284 111.954,231.001 113.577 C 231.718 115.201,232.620 117.220,233.004 118.064 C 233.388 118.908,234.204 120.767,234.817 122.196 C 237.113 127.551,239.720 133.204,239.837 133.087 C 239.931 132.993,237.188 126.751,228.929 108.264 C 227.014 103.979,224.769 98.950,223.941 97.089 C 222.337 93.485,221.978 92.772,221.967 93.159 M276.850 103.306 C 276.850 109.020,276.881 111.324,276.918 108.426 C 276.956 105.527,276.956 100.852,276.918 98.036 C 276.881 95.220,276.850 97.591,276.850 103.306 M101.599 96.576 C 101.599 97.161,101.645 97.400,101.701 97.107 C 101.758 96.815,101.758 96.337,101.701 96.045 C 101.645 95.753,101.599 95.992,101.599 96.576 M279.693 106.375 C 279.693 112.845,279.761 115.677,279.887 114.522 C 280.137 112.246,280.135 100.543,279.885 98.229 C 279.761 97.090,279.693 99.995,279.693 106.375 M101.217 100.273 C 101.031 103.301,101.063 111.630,101.269 113.932 C 101.350 114.841,101.421 111.573,101.425 106.671 C 101.430 101.768,101.420 97.757,101.402 97.757 C 101.385 97.757,101.301 98.889,101.217 100.273 M177.868 100.826 C 177.868 101.411,177.914 101.650,177.971 101.358 C 178.027 101.066,178.027 100.587,177.971 100.295 C 177.914 100.003,177.868 100.242,177.868 100.826 M104.239 110.035 C 104.239 114.646,104.270 116.532,104.309 114.227 C 104.348 111.921,104.348 108.149,104.309 105.844 C 104.270 103.539,104.239 105.425,104.239 110.035 M176.909 108.264 C 176.482 111.771,176.149 115.065,176.169 115.584 C 176.188 116.104,176.562 113.554,176.998 109.917 C 177.435 106.281,177.768 102.987,177.739 102.597 C 177.710 102.208,177.337 104.758,176.909 108.264 M201.009 109.799 C 201.009 110.384,201.055 110.623,201.111 110.331 C 201.167 110.038,201.167 109.560,201.111 109.268 C 201.055 108.976,201.009 109.215,201.009 109.799 M85.130 112.279 C 85.216 115.264,86.025 123.028,86.311 123.613 C 86.375 123.743,86.374 123.336,86.309 122.710 C 86.244 122.083,86.029 120.011,85.832 118.105 C 85.634 116.199,85.374 113.365,85.254 111.806 L 85.034 108.973 85.130 112.279 M201.208 111.620 C 201.184 112.068,202.309 125.008,202.718 128.985 L 202.857 130.342 188.796 130.342 C 181.062 130.342,174.736 130.263,174.738 130.165 C 174.741 130.068,175.004 127.704,175.325 124.911 C 175.645 122.119,175.897 119.516,175.886 119.126 C 175.862 118.326,174.530 128.641,174.511 129.775 L 174.498 130.507 179.852 130.675 C 182.797 130.767,189.226 130.767,194.138 130.674 L 203.070 130.506 203.070 129.671 C 203.070 127.770,201.274 110.360,201.208 111.620 M295.684 115.445 C 295.518 117.576,295.218 120.428,295.016 121.782 C 294.815 123.137,294.696 124.291,294.752 124.346 C 295.056 124.650,296.155 115.168,296.057 113.086 C 296.004 111.953,295.910 112.550,295.684 115.445 M107.830 121.202 C 106.685 125.255,105.489 129.387,105.172 130.383 L 104.595 132.195 105.400 134.515 C 106.691 138.236,107.274 139.688,107.366 139.412 C 107.413 139.271,106.979 137.943,106.401 136.461 C 104.731 132.175,104.691 132.503,108.391 120.189 C 108.878 118.566,109.405 116.679,109.562 115.998 C 109.878 114.621,110.143 114.428,110.372 115.407 C 110.617 116.459,112.219 120.917,112.317 120.820 C 112.424 120.713,110.287 114.243,110.065 114.000 C 109.981 113.907,108.975 117.148,107.830 121.202 M271.026 113.945 C 270.755 114.400,266.803 126.622,266.896 126.715 C 267.004 126.823,268.077 123.762,269.764 118.536 C 270.372 116.653,270.928 114.953,270.999 114.758 C 271.085 114.520,271.230 114.676,271.437 115.230 C 271.608 115.685,271.747 115.897,271.747 115.702 C 271.747 115.115,271.169 113.705,271.026 113.945 M101.556 116.488 C 101.525 117.466,102.419 123.094,102.930 125.148 C 103.531 127.555,103.543 126.412,102.945 123.808 C 102.682 122.662,102.266 120.396,102.022 118.772 C 101.777 117.149,101.567 116.121,101.556 116.488 M271.783 116.448 C 271.783 116.642,272.055 117.695,272.388 118.790 C 272.721 119.884,273.303 121.948,273.681 123.377 C 274.060 124.805,274.786 127.379,275.296 129.097 L 276.222 132.220 275.678 133.938 C 274.188 138.647,270.076 148.033,268.719 149.823 C 268.621 149.953,268.276 150.537,267.953 151.122 C 264.957 156.539,258.277 165.191,253.743 169.527 C 252.680 170.544,252.684 170.413,253.811 167.135 C 254.316 165.665,255.657 161.594,256.791 158.087 C 257.925 154.581,259.245 150.543,259.723 149.115 C 260.202 147.686,261.112 144.923,261.747 142.975 C 263.922 136.297,264.602 134.233,265.734 130.878 C 266.357 129.030,266.829 127.405,266.783 127.267 C 266.693 126.997,264.969 132.150,257.736 154.309 C 255.193 162.102,252.901 169.115,252.644 169.894 L 252.175 171.311 254.675 168.831 C 264.017 159.562,271.695 147.026,275.917 134.146 L 276.567 132.164 275.955 130.250 C 275.618 129.197,274.589 125.628,273.667 122.320 C 272.053 116.526,271.783 115.685,271.783 116.448 M277.030 122.727 C 277.001 126.266,277.069 129.162,277.181 129.162 C 277.551 129.162,279.615 118.653,279.547 117.119 C 279.514 116.394,279.469 116.602,278.980 119.717 C 278.765 121.080,278.398 123.046,278.164 124.085 C 277.930 125.124,277.646 126.505,277.535 127.155 C 277.385 128.027,277.299 126.765,277.208 122.314 L 277.083 116.293 277.030 122.727 M175.975 117.473 C 175.977 117.993,176.026 118.178,176.082 117.884 C 176.138 117.590,176.136 117.165,176.077 116.939 C 176.018 116.714,175.972 116.954,175.975 117.473 M103.851 124.852 C 103.808 126.898,103.847 128.784,103.938 129.044 C 104.028 129.303,104.109 127.630,104.117 125.325 C 104.125 123.019,104.087 121.133,104.031 121.133 C 103.975 121.133,103.894 122.807,103.851 124.852 M112.413 121.324 C 112.404 121.494,113.720 125.638,115.336 130.533 C 116.953 135.428,118.781 140.974,119.398 142.857 C 121.293 148.639,122.163 151.115,122.264 151.014 C 122.349 150.929,113.693 124.407,112.782 121.960 C 112.588 121.440,112.422 121.154,112.413 121.324 M123.279 123.521 C 123.254 123.701,131.013 142.606,131.312 143.093 C 131.779 143.854,131.188 141.976,130.445 140.337 C 130.023 139.405,129.603 138.396,129.512 138.093 C 129.422 137.791,128.892 136.482,128.336 135.183 C 126.586 131.099,125.651 128.850,125.145 127.509 C 124.592 126.040,123.310 123.301,123.279 123.521 M86.533 125.148 C 86.817 129.497,90.623 142.223,93.525 148.528 C 94.034 149.634,94.451 150.613,94.451 150.703 C 94.451 150.867,97.389 156.447,98.526 158.442 C 100.706 162.268,105.720 169.700,107.894 172.329 C 113.480 179.085,120.054 185.702,124.236 188.780 C 124.591 189.042,125.712 189.890,126.727 190.666 C 128.566 192.070,130.957 193.767,131.731 194.215 C 131.955 194.345,132.877 194.920,133.779 195.493 C 138.275 198.349,142.324 200.612,142.544 200.392 C 142.612 200.324,142.100 199.981,141.405 199.631 C 122.519 190.112,106.093 173.241,95.930 152.925 C 91.331 143.731,89.202 137.253,86.569 124.439 C 86.503 124.115,86.486 124.433,86.533 125.148 M293.682 128.734 C 293.194 130.959,292.837 132.821,292.889 132.873 C 293.061 133.045,294.719 125.859,294.643 125.269 C 294.603 124.951,294.170 126.510,293.682 128.734 M291.976 135.596 C 283.344 166.954,258.794 193.297,226.800 205.533 C 225.632 205.980,224.848 206.353,225.059 206.361 C 225.454 206.376,230.295 204.478,233.665 202.987 C 240.528 199.951,250.576 193.832,256.408 189.138 C 260.574 185.785,268.568 178.066,271.311 174.747 C 271.895 174.040,272.702 173.084,273.104 172.622 C 280.544 164.079,290.958 143.546,292.661 134.061 C 292.945 132.478,292.657 133.123,291.976 135.596 M252.692 135.630 C 252.153 136.854,251.712 137.928,251.712 138.017 C 251.712 138.171,250.925 140.062,248.762 145.100 C 248.204 146.399,247.674 147.709,247.583 148.011 C 247.493 148.313,247.056 149.355,246.614 150.326 C 246.171 151.298,245.809 152.202,245.809 152.337 C 245.809 152.471,245.394 153.554,244.887 154.744 C 243.480 158.043,239.047 168.791,236.837 174.262 C 236.286 175.626,235.430 177.698,234.934 178.867 C 234.438 180.035,233.657 181.936,233.199 183.089 C 232.740 184.243,232.335 185.213,232.298 185.244 C 231.932 185.559,229.467 186.807,229.382 186.721 C 229.320 186.659,229.577 185.923,229.952 185.086 C 230.328 184.248,230.714 183.303,230.810 182.986 C 230.906 182.668,231.385 181.452,231.875 180.283 C 232.365 179.115,233.216 177.043,233.766 175.679 C 234.317 174.315,235.173 172.243,235.670 171.074 C 237.939 165.737,239.251 162.229,239.113 161.869 C 238.972 161.500,236.108 160.574,235.001 160.539 C 232.805 160.469,232.573 160.239,234.120 159.668 C 234.943 159.365,235.231 159.190,234.806 159.252 C 234.405 159.311,233.448 159.653,232.681 160.011 L 231.287 160.663 234.002 160.805 C 237.310 160.977,239.112 161.608,238.831 162.494 C 238.740 162.781,236.447 168.432,233.735 175.052 C 231.023 181.672,228.846 187.130,228.897 187.181 C 228.947 187.231,229.793 186.875,230.775 186.388 L 232.562 185.504 235.445 178.407 C 237.031 174.504,241.819 162.821,246.086 152.444 C 250.354 142.067,253.806 133.538,253.758 133.491 C 253.711 133.443,253.231 134.406,252.692 135.630 M107.438 139.848 C 107.438 141.150,112.752 151.198,116.097 156.221 C 119.090 160.715,128.375 171.586,128.830 171.130 C 128.873 171.088,128.359 169.368,127.689 167.308 C 127.019 165.248,126.429 163.687,126.379 163.839 C 126.328 163.992,126.736 165.392,127.286 166.952 C 127.835 168.511,128.229 169.843,128.160 169.911 C 127.932 170.139,122.537 164.499,121.002 162.427 C 120.749 162.087,119.897 160.972,119.108 159.948 C 115.122 154.778,111.758 149.007,108.598 141.913 C 107.853 140.238,107.438 139.501,107.438 139.848 M131.523 143.595 C 131.523 143.664,134.959 152.106,139.159 162.356 C 143.359 172.606,147.211 182.017,147.719 183.271 L 148.642 185.549 150.358 186.399 C 152.570 187.495,152.661 187.476,151.952 186.076 C 150.982 184.163,151.070 183.913,153.573 181.438 C 156.098 178.941,158.374 177.376,161.133 176.240 C 162.185 175.806,162.813 175.449,162.529 175.447 C 160.875 175.433,156.423 178.328,153.190 181.519 C 150.530 184.144,150.583 183.902,152.025 186.866 C 152.080 186.980,151.391 186.671,150.493 186.180 C 148.664 185.180,149.069 185.874,146.223 178.867 C 145.643 177.438,144.755 175.296,144.249 174.106 C 143.743 172.917,143.329 171.872,143.329 171.783 C 143.329 171.695,142.945 170.756,142.476 169.696 C 142.006 168.636,141.435 167.237,141.206 166.588 C 140.977 165.939,140.458 164.687,140.052 163.808 C 139.647 162.928,139.315 162.109,139.315 161.988 C 139.315 161.867,138.826 160.621,138.228 159.219 C 136.969 156.266,135.808 153.489,134.993 151.476 C 132.426 145.135,131.914 143.920,131.719 143.695 C 131.611 143.572,131.523 143.527,131.523 143.595 M240.850 145.309 C 238.461 146.308,235.885 148.044,232.621 150.855 C 228.593 154.324,225.273 155.677,219.835 156.063 L 217.591 156.222 219.008 156.665 C 221.839 157.549,226.953 157.146,230.881 155.729 C 232.929 154.990,239.932 151.594,239.407 151.594 C 239.205 151.594,237.331 152.443,235.244 153.481 C 230.255 155.963,227.121 156.831,223.140 156.832 C 219.507 156.834,218.155 156.458,221.052 156.252 C 225.238 155.954,229.316 154.125,233.030 150.878 C 236.236 148.076,239.346 146.072,242.014 145.090 C 242.478 144.919,242.698 144.776,242.503 144.773 C 242.308 144.769,241.564 145.010,240.850 145.309 M188.902 150.415 C 187.923 150.534,188.353 150.582,190.653 150.611 C 192.331 150.632,193.659 150.611,193.605 150.564 C 193.384 150.372,190.112 150.269,188.902 150.415 M185.348 151.094 C 182.050 152.150,178.694 154.300,175.304 157.529 C 171.671 160.990,169.320 162.200,162.928 163.899 L 161.865 164.181 164.109 164.504 C 169.141 165.228,172.858 166.762,175.797 169.326 C 179.461 172.522,184.987 175.346,186.706 174.899 C 187.064 174.807,187.053 174.785,186.638 174.762 C 184.120 174.622,179.463 172.169,176.028 169.173 C 173.080 166.602,170.406 165.435,164.962 164.341 L 163.572 164.062 166.309 163.168 C 170.217 161.893,172.661 160.448,175.540 157.712 C 179.229 154.204,182.467 152.193,186.187 151.100 C 186.966 150.870,187.391 150.681,187.131 150.679 C 186.871 150.677,186.069 150.863,185.348 151.094 M195.159 151.107 C 198.502 152.106,201.524 153.926,204.604 156.794 C 206.476 158.537,208.869 160.567,209.053 160.567 C 209.120 160.567,209.815 160.948,210.596 161.413 C 211.378 161.879,213.259 162.665,214.778 163.161 L 217.538 164.062 216.148 164.338 C 215.383 164.489,214.280 164.764,213.695 164.947 C 213.111 165.131,212.898 165.231,213.223 165.170 C 213.548 165.108,214.956 164.871,216.352 164.642 C 218.599 164.274,219.691 163.872,218.444 163.872 C 215.353 163.872,209.357 160.822,205.635 157.356 C 201.532 153.536,196.410 150.562,194.113 150.666 C 193.909 150.675,194.380 150.874,195.159 151.107 M242.073 151.296 L 243.414 151.380 243.077 152.188 C 242.601 153.326,242.675 153.518,243.211 152.538 C 243.934 151.218,243.860 151.116,242.208 151.166 L 240.732 151.211 242.073 151.296 M122.331 151.594 C 122.314 151.916,123.004 154.055,125.368 160.998 C 125.824 162.339,126.228 163.348,126.264 163.239 C 126.300 163.131,125.434 160.387,124.340 157.141 C 123.246 153.895,122.342 151.399,122.331 151.594 M188.548 152.992 C 188.111 153.110,188.609 153.139,189.847 153.067 C 195.139 152.761,199.782 155.994,200.694 160.622 L 200.893 161.629 200.919 160.718 C 201.045 156.267,193.611 151.625,188.548 152.992 M186.207 153.619 C 183.259 154.699,180.122 158.616,180.193 161.127 L 180.221 162.102 180.406 161.008 C 180.925 157.932,183.308 155.122,186.515 153.803 C 187.953 153.211,187.711 153.067,186.207 153.619 M241.545 155.984 L 240.494 158.560 238.724 158.694 L 236.954 158.829 238.902 158.871 C 240.494 158.906,240.850 158.849,240.850 158.560 C 240.850 158.365,241.283 157.246,241.811 156.071 C 242.340 154.897,242.733 153.818,242.684 153.673 C 242.636 153.527,242.123 154.567,241.545 155.984 M189.729 158.480 C 189.407 159.173,189.149 159.953,189.156 160.213 C 189.164 160.472,189.304 160.260,189.467 159.740 C 189.799 158.687,190.341 157.733,190.607 157.733 C 191.791 157.733,192.431 163.826,191.505 166.288 C 190.721 168.374,190.564 168.376,189.717 166.315 C 189.405 165.556,189.147 165.153,189.144 165.420 C 189.136 166.110,190.321 168.398,190.632 168.294 C 192.269 167.748,192.803 161.191,191.435 158.452 C 190.710 157.002,190.415 157.007,189.729 158.480 M188.986 162.810 C 188.985 163.979,189.025 164.487,189.075 163.939 C 189.124 163.391,189.125 162.434,189.076 161.814 C 189.027 161.193,188.987 161.641,188.986 162.810 M180.274 164.162 C 180.566 168.451,185.477 172.373,190.555 172.373 C 195.543 172.373,201.039 167.990,200.918 164.109 L 200.893 163.282 200.696 164.281 C 198.639 174.701,182.340 174.414,180.389 163.924 L 180.182 162.810 180.274 164.162 M210.914 165.636 C 209.380 166.115,206.715 167.790,204.660 169.565 C 201.075 172.663,196.958 174.520,192.680 174.970 L 190.673 175.181 192.680 175.081 C 197.258 174.851,200.841 173.170,205.892 168.883 C 207.405 167.600,209.383 166.483,211.452 165.745 C 212.824 165.256,212.405 165.171,210.914 165.636 M155.844 169.303 C 155.844 169.433,155.623 169.540,155.352 169.540 C 154.425 169.540,150.330 171.868,148.762 173.286 L 147.230 174.673 147.499 175.589 C 148.542 179.141,148.734 179.307,150.298 178.012 C 152.418 176.258,154.741 174.886,157.143 173.969 C 158.442 173.474,159.132 173.136,158.678 173.218 C 156.469 173.619,153.084 175.420,150.349 177.651 L 148.986 178.763 148.554 177.752 C 147.378 174.999,147.381 175.077,148.418 174.008 C 149.851 172.530,152.505 170.863,154.569 170.144 C 157.419 169.152,157.514 169.102,156.612 169.083 C 156.189 169.074,155.844 169.174,155.844 169.303 M163.223 172.545 C 163.710 172.596,164.507 172.596,164.994 172.545 C 165.481 172.494,165.083 172.452,164.109 172.452 C 163.135 172.452,162.736 172.494,163.223 172.545 M169.067 173.400 C 172.256 174.530,172.234 174.616,168.760 174.616 C 166.899 174.616,165.139 174.746,164.391 174.938 C 162.557 175.409,163.028 175.496,165.069 175.063 C 167.164 174.618,171.025 174.723,172.550 175.266 C 173.102 175.463,173.554 175.582,173.554 175.530 C 173.554 175.056,168.905 172.838,167.937 172.850 C 167.714 172.853,168.223 173.100,169.067 173.400 M187.903 175.142 C 188.327 175.194,188.965 175.193,189.319 175.139 C 189.674 175.085,189.327 175.042,188.548 175.044 C 187.769 175.045,187.478 175.089,187.903 175.142 M181.228 179.350 C 179.001 180.732,176.937 181.145,171.311 181.335 C 164.132 181.577,161.563 182.639,158.639 186.571 L 157.389 188.251 155.774 188.101 C 154.787 188.010,154.213 188.038,154.297 188.173 C 154.619 188.695,165.070 192.422,167.178 192.767 C 167.633 192.842,166.995 192.583,165.762 192.193 C 164.528 191.803,162.456 191.105,161.157 190.641 C 159.858 190.177,158.239 189.602,157.558 189.362 C 155.528 188.649,155.317 188.445,156.600 188.437 C 157.659 188.430,157.746 188.377,158.465 187.308 C 161.353 183.014,164.007 181.851,171.547 181.574 C 176.474 181.393,179.879 180.782,180.734 179.927 C 181.269 179.392,181.381 179.743,180.856 180.306 C 180.169 181.041,178.714 181.919,176.897 182.695 C 176.162 183.009,175.876 183.198,176.262 183.115 C 178.163 182.706,181.342 180.551,182.081 179.172 C 182.364 178.643,182.368 178.642,181.228 179.350 M173.790 183.405 C 170.615 183.767,167.582 185.024,166.025 186.623 C 164.112 188.587,161.486 188.420,195.447 188.488 C 225.373 188.547,225.610 188.551,224.439 188.996 C 220.531 190.480,218.914 191.130,218.976 191.192 C 219.200 191.416,226.682 188.465,226.682 188.153 C 226.682 187.878,226.268 187.909,226.090 188.197 C 226.008 188.329,225.816 188.356,225.663 188.257 C 225.509 188.157,211.841 188.022,195.290 187.957 L 165.196 187.839 166.142 186.844 C 167.412 185.509,169.653 184.504,172.634 183.932 C 175.870 183.311,176.290 183.119,173.790 183.405 M215.485 192.096 C 214.067 192.538,212.313 193.019,211.589 193.164 C 210.864 193.310,209.545 193.593,208.657 193.793 C 207.769 193.994,205.963 194.348,204.643 194.580 C 203.323 194.813,202.528 195.011,202.877 195.022 C 204.623 195.075,214.203 192.937,217.473 191.764 C 219.585 191.006,218.274 191.225,215.485 192.096 M171.074 193.758 C 172.820 194.241,178.001 195.088,178.465 194.966 C 178.725 194.897,178.658 194.850,178.276 194.831 C 177.952 194.814,176.145 194.486,174.262 194.101 C 170.698 193.372,169.034 193.193,171.074 193.758 M179.401 195.208 C 179.694 195.265,180.119 195.263,180.345 195.204 C 180.571 195.144,180.331 195.098,179.811 195.101 C 179.292 195.103,179.107 195.152,179.401 195.208 M201.004 195.204 C 201.231 195.263,201.603 195.263,201.830 195.204 C 202.057 195.145,201.871 195.096,201.417 195.096 C 200.962 195.096,200.776 195.145,201.004 195.204 M182.763 195.589 C 185.038 195.837,196.270 195.835,198.583 195.586 C 199.721 195.464,196.892 195.396,190.673 195.396 C 184.367 195.396,181.609 195.463,182.763 195.589 M142.949 200.666 C 143.120 200.942,150.023 204.102,152.774 205.162 C 157.932 207.151,169.858 210.420,171.785 210.372 C 172.173 210.363,170.897 210.004,168.949 209.576 C 159.984 207.603,152.041 204.966,146.176 202.014 C 144.205 201.023,142.809 200.439,142.949 200.666 M220.783 207.408 C 219.422 207.814,218.518 208.176,218.776 208.211 C 219.034 208.247,220.307 207.910,221.606 207.462 C 224.535 206.451,224.089 206.422,220.783 207.408 M212.633 209.456 C 210.555 209.948,209.174 210.357,209.563 210.364 C 209.953 210.371,211.865 209.964,213.813 209.460 C 218.343 208.288,217.569 208.285,212.633 209.456 M174.952 210.882 C 176.976 211.279,182.193 211.805,183.825 211.777 C 185.067 211.755,184.574 211.669,181.846 211.431 C 179.848 211.257,177.423 211.004,176.457 210.870 C 174.386 210.582,173.460 210.590,174.952 210.882 M204.280 210.905 C 203.323 211.025,200.985 211.264,199.086 211.437 C 196.610 211.662,196.066 211.759,197.166 211.779 C 198.683 211.806,207.087 210.937,207.293 210.732 C 207.440 210.584,206.331 210.648,204.280 210.905 " stroke="none" fill="#04040c" fill-rule="evenodd"></path><path id="path3" d="M174.081 30.224 C 174.081 30.679,174.129 30.865,174.189 30.638 C 174.248 30.410,174.248 30.038,174.189 29.811 C 174.129 29.584,174.081 29.770,174.081 30.224 M264.817 31.641 C 265.980 32.810,266.985 33.766,267.050 33.766 C 267.115 33.766,266.217 32.810,265.053 31.641 C 263.890 30.472,262.885 29.516,262.820 29.516 C 262.755 29.516,263.654 30.472,264.817 31.641 M127.501 42.680 L 126.210 44.038 127.568 42.747 C 128.829 41.548,129.034 41.322,128.859 41.322 C 128.822 41.322,128.211 41.933,127.501 42.680 M256.984 48.052 C 256.985 48.961,257.028 49.304,257.079 48.814 C 257.130 48.324,257.129 47.580,257.077 47.161 C 257.025 46.742,256.983 47.143,256.984 48.052 M124.043 53.129 C 124.043 53.973,124.085 54.318,124.138 53.896 C 124.190 53.474,124.190 52.783,124.138 52.361 C 124.085 51.939,124.043 52.285,124.043 53.129 M202.233 60.921 C 202.233 66.051,202.264 68.149,202.302 65.584 C 202.340 63.019,202.340 58.822,202.302 56.257 C 202.264 53.692,202.233 55.791,202.233 60.921 M257.207 65.643 C 257.207 66.228,257.253 66.467,257.310 66.175 C 257.366 65.883,257.366 65.404,257.310 65.112 C 257.253 64.820,257.207 65.059,257.207 65.643 M123.804 70.012 C 123.805 70.791,123.849 71.081,123.902 70.657 C 123.954 70.233,123.953 69.595,123.900 69.240 C 123.846 68.885,123.803 69.233,123.804 70.012 M257.463 81.346 C 257.462 82.515,257.502 83.023,257.552 82.475 C 257.601 81.927,257.602 80.970,257.553 80.350 C 257.504 79.729,257.464 80.177,257.463 81.346 M206.599 81.169 L 205.785 82.054 206.671 81.241 C 207.495 80.483,207.665 80.283,207.484 80.283 C 207.445 80.283,207.046 80.682,206.599 81.169 M276.585 89.965 C 276.585 90.939,276.626 91.337,276.677 90.850 C 276.728 90.363,276.728 89.566,276.677 89.079 C 276.626 88.592,276.585 88.991,276.585 89.965 M165.215 89.669 C 167.706 89.707,171.850 89.707,174.424 89.669 C 176.997 89.631,174.959 89.600,169.894 89.600 C 164.829 89.600,162.723 89.631,165.215 89.669 M204.545 89.669 C 207.500 89.707,212.335 89.707,215.289 89.669 C 218.244 89.632,215.826 89.601,209.917 89.601 C 204.008 89.601,201.591 89.632,204.545 89.669 M104.449 98.347 C 104.450 99.386,104.492 99.782,104.542 99.226 C 104.591 98.671,104.591 97.821,104.540 97.337 C 104.489 96.854,104.448 97.308,104.449 98.347 M276.817 114.994 C 276.817 115.838,276.860 116.184,276.912 115.762 C 276.965 115.339,276.965 114.649,276.912 114.227 C 276.860 113.805,276.817 114.150,276.817 114.994 M104.208 119.717 C 104.208 120.561,104.251 120.906,104.303 120.484 C 104.355 120.062,104.355 119.371,104.303 118.949 C 104.251 118.527,104.208 118.872,104.208 119.717 M221.318 136.419 C 221.938 136.468,222.895 136.468,223.443 136.418 C 223.991 136.369,223.483 136.329,222.314 136.329 C 221.145 136.330,220.697 136.371,221.318 136.419 M253.949 169.599 L 252.302 171.311 254.014 169.664 C 255.604 168.135,255.834 167.887,255.661 167.887 C 255.625 167.887,254.854 168.657,253.949 169.599 M154.604 168.998 C 154.897 169.054,155.375 169.054,155.667 168.998 C 155.959 168.942,155.720 168.895,155.136 168.895 C 154.551 168.895,154.312 168.942,154.604 168.998 M265.992 179.988 L 264.109 181.936 266.057 180.053 C 267.866 178.303,268.112 178.040,267.940 178.040 C 267.905 178.040,267.028 178.917,265.992 179.988 M221.793 188.133 C 222.675 188.178,224.056 188.178,224.862 188.132 C 225.669 188.086,224.947 188.049,223.259 188.049 C 221.570 188.050,220.911 188.087,221.793 188.133 " stroke="none" fill="#040c54" fill-rule="evenodd"></path><path id="path4" d="M190.738 1.118 C 191.294 1.168,192.144 1.167,192.627 1.116 C 193.111 1.065,192.656 1.025,191.617 1.025 C 190.579 1.026,190.183 1.068,190.738 1.118 M117.462 30.519 L 116.529 31.523 117.532 30.590 C 118.084 30.076,118.536 29.625,118.536 29.586 C 118.536 29.407,118.330 29.586,117.462 30.519 M207.148 30.460 C 207.148 31.045,207.194 31.284,207.250 30.992 C 207.307 30.700,207.307 30.221,207.250 29.929 C 207.194 29.637,207.148 29.876,207.148 30.460 M113.684 34.298 L 112.751 35.301 113.754 34.368 C 114.688 33.500,114.866 33.294,114.688 33.294 C 114.649 33.294,114.198 33.746,113.684 34.298 M203.173 39.020 L 202.479 39.787 203.247 39.094 C 203.669 38.713,204.014 38.367,204.014 38.327 C 204.014 38.144,203.819 38.305,203.173 39.020 M199.279 40.319 L 198.465 41.204 199.351 40.391 C 200.175 39.633,200.345 39.433,200.164 39.433 C 200.125 39.433,199.726 39.832,199.279 40.319 M253.601 42.621 C 254.438 43.465,255.175 44.156,255.240 44.156 C 255.305 44.156,254.674 43.465,253.837 42.621 C 253.000 41.777,252.263 41.086,252.198 41.086 C 252.133 41.086,252.764 41.777,253.601 42.621 M184.357 43.378 C 184.649 43.434,185.127 43.434,185.419 43.378 C 185.711 43.322,185.472 43.276,184.888 43.276 C 184.303 43.276,184.064 43.322,184.357 43.378 M124.267 47.226 C 124.267 47.810,124.313 48.049,124.370 47.757 C 124.426 47.465,124.426 46.986,124.370 46.694 C 124.313 46.402,124.267 46.641,124.267 47.226 M200.000 59.575 L 200.118 70.484 200.179 59.755 C 200.213 53.853,200.160 48.944,200.061 48.845 C 199.963 48.746,199.935 53.575,200.000 59.575 M208.608 61.039 C 208.608 66.234,208.639 68.325,208.677 65.687 C 208.715 63.048,208.715 58.798,208.677 56.242 C 208.639 53.685,208.608 55.844,208.608 61.039 M191.607 61.157 C 191.607 66.287,191.638 68.385,191.676 65.821 C 191.714 63.256,191.714 59.058,191.676 56.494 C 191.638 53.929,191.607 56.027,191.607 61.157 M217.001 61.346 L 217.119 67.887 217.182 61.527 C 217.217 58.029,217.164 55.086,217.064 54.986 C 216.965 54.886,216.936 57.748,217.001 61.346 M256.995 59.150 C 256.996 60.579,257.034 61.132,257.081 60.381 C 257.128 59.629,257.128 58.461,257.081 57.784 C 257.033 57.107,256.995 57.721,256.995 59.150 M124.055 62.456 C 124.056 63.884,124.095 64.438,124.142 63.687 C 124.189 62.935,124.188 61.766,124.141 61.089 C 124.093 60.412,124.055 61.027,124.055 62.456 M257.222 72.727 C 257.222 73.701,257.264 74.100,257.315 73.613 C 257.366 73.126,257.366 72.329,257.315 71.842 C 257.264 71.355,257.222 71.753,257.222 72.727 M210.257 77.509 L 209.563 78.276 210.331 77.583 C 210.753 77.201,211.098 76.856,211.098 76.815 C 211.098 76.633,210.903 76.794,210.257 77.509 M123.731 85.242 C 123.731 88.792,123.791 91.636,123.864 91.563 C 124.023 91.404,124.001 79.058,123.842 78.899 C 123.781 78.838,123.731 81.692,123.731 85.242 M276.368 81.076 C 276.300 81.252,276.278 82.075,276.319 82.906 L 276.394 84.416 276.508 82.585 C 276.623 80.753,276.598 80.476,276.368 81.076 M104.548 84.120 C 104.659 89.827,104.748 90.376,104.794 85.655 C 104.820 83.090,104.761 80.992,104.664 80.991 C 104.566 80.991,104.514 82.399,104.548 84.120 M202.358 85.655 L 199.410 88.666 202.420 85.718 C 205.217 82.979,205.538 82.645,205.368 82.645 C 205.334 82.645,203.979 83.999,202.358 85.655 M276.608 104.486 C 276.608 107.733,276.641 109.094,276.682 107.511 C 276.722 105.927,276.722 103.271,276.682 101.608 C 276.641 99.944,276.608 101.240,276.608 104.486 M100.897 103.896 C 100.897 104.610,100.941 104.903,100.996 104.545 C 101.050 104.188,101.050 103.604,100.996 103.247 C 100.941 102.890,100.897 103.182,100.897 103.896 M85.090 105.195 C 85.089 106.364,85.129 106.872,85.178 106.324 C 85.228 105.776,85.229 104.819,85.180 104.198 C 85.131 103.578,85.090 104.026,85.090 105.195 M104.467 110.744 C 104.467 113.276,104.502 114.312,104.544 113.046 C 104.587 111.780,104.587 109.708,104.544 108.442 C 104.502 107.175,104.467 108.211,104.467 110.744 M100.897 109.799 C 100.897 110.514,100.941 110.806,100.996 110.449 C 101.050 110.091,101.050 109.507,100.996 109.150 C 100.941 108.793,100.897 109.085,100.897 109.799 M276.830 123.613 C 276.830 125.041,276.869 125.595,276.916 124.844 C 276.963 124.092,276.963 122.923,276.915 122.246 C 276.868 121.569,276.829 122.184,276.830 123.613 M104.200 128.099 C 104.202 128.749,104.247 128.986,104.302 128.627 C 104.356 128.268,104.354 127.737,104.298 127.447 C 104.242 127.156,104.198 127.450,104.200 128.099 M176.564 130.281 C 177.376 130.327,178.704 130.327,179.516 130.281 C 180.328 130.235,179.664 130.197,178.040 130.197 C 176.417 130.197,175.753 130.235,176.564 130.281 M194.864 130.282 C 196.260 130.324,198.545 130.324,199.941 130.282 C 201.337 130.241,200.195 130.207,197.403 130.207 C 194.610 130.207,193.468 130.241,194.864 130.282 M142.090 136.422 C 143.291 136.464,145.257 136.464,146.458 136.422 C 147.659 136.379,146.677 136.344,144.274 136.344 C 141.871 136.344,140.888 136.379,142.090 136.422 M165.367 136.423 C 174.565 136.457,189.548 136.457,198.661 136.423 C 207.774 136.388,200.248 136.360,181.936 136.360 C 163.625 136.360,156.168 136.388,165.367 136.423 M223.250 143.625 L 222.078 144.864 223.318 143.692 C 224.470 142.604,224.666 142.385,224.489 142.385 C 224.452 142.385,223.894 142.943,223.250 143.625 M213.159 151.292 C 213.578 151.344,214.322 151.345,214.812 151.294 C 215.302 151.243,214.959 151.200,214.050 151.199 C 213.140 151.198,212.740 151.240,213.159 151.292 M190.378 153.173 C 190.605 153.233,190.977 153.233,191.204 153.173 C 191.432 153.114,191.246 153.065,190.791 153.065 C 190.336 153.065,190.151 153.114,190.378 153.173 M175.666 156.966 L 174.852 157.851 175.738 157.038 C 176.562 156.280,176.732 156.080,176.552 156.080 C 176.512 156.080,176.114 156.479,175.666 156.966 M205.431 157.143 C 205.871 157.597,206.285 157.969,206.350 157.969 C 206.415 157.969,206.108 157.597,205.667 157.143 C 205.226 156.688,204.813 156.316,204.748 156.316 C 204.683 156.316,204.990 156.688,205.431 157.143 M238.076 158.611 C 238.433 158.665,239.017 158.665,239.374 158.611 C 239.731 158.557,239.439 158.512,238.725 158.512 C 238.011 158.512,237.718 158.557,238.076 158.611 M124.675 167.296 C 125.116 167.751,125.529 168.123,125.594 168.123 C 125.659 168.123,125.352 167.751,124.911 167.296 C 124.471 166.842,124.057 166.470,123.992 166.470 C 123.927 166.470,124.235 166.842,124.675 167.296 M182.999 168.949 C 183.439 169.404,183.853 169.776,183.918 169.776 C 183.983 169.776,183.676 169.404,183.235 168.949 C 182.794 168.495,182.381 168.123,182.316 168.123 C 182.251 168.123,182.558 168.495,182.999 168.949 M163.816 172.304 C 164.110 172.360,164.535 172.358,164.761 172.299 C 164.986 172.240,164.746 172.194,164.227 172.197 C 163.707 172.199,163.522 172.247,163.816 172.304 M148.391 174.085 L 147.698 174.852 148.465 174.159 C 148.887 173.777,149.233 173.432,149.233 173.391 C 149.233 173.209,149.038 173.370,148.391 174.085 M116.057 181.110 C 116.696 181.759,117.273 182.290,117.338 182.290 C 117.403 182.290,116.932 181.759,116.293 181.110 C 115.653 180.460,115.077 179.929,115.012 179.929 C 114.947 179.929,115.417 180.460,116.057 181.110 M262.441 183.294 L 261.747 184.061 262.515 183.368 C 263.230 182.721,263.391 182.527,263.208 182.527 C 263.168 182.527,262.822 182.872,262.441 183.294 M93.743 219.481 C 94.971 220.714,96.030 221.724,96.095 221.724 C 96.160 221.724,95.207 220.714,93.979 219.481 C 92.750 218.247,91.692 217.237,91.627 217.237 C 91.562 217.237,92.514 218.247,93.743 219.481 M9.504 250.708 C 12.329 250.746,16.951 250.746,19.776 250.708 C 22.600 250.670,20.289 250.640,14.640 250.640 C 8.991 250.640,6.679 250.670,9.504 250.708 M90.484 250.707 C 91.614 250.750,93.526 250.750,94.734 250.707 C 95.942 250.664,95.018 250.629,92.680 250.629 C 90.342 250.629,89.354 250.664,90.484 250.707 M325.100 250.707 C 326.177 250.751,327.877 250.751,328.878 250.707 C 329.878 250.662,328.996 250.627,326.919 250.627 C 324.841 250.627,324.022 250.663,325.100 250.707 M379.044 250.708 C 381.868 250.746,386.491 250.746,389.315 250.708 C 392.140 250.670,389.829 250.640,384.179 250.640 C 378.530 250.640,376.219 250.670,379.044 250.708 " stroke="none" fill="#040f6c" fill-rule="evenodd"></path></g></svg>